# xmcd
#
# Track frame offsets: 
#        150
#        14141
#        43043
#        58709
#        85591
#        101025
#        121040
#        136858
#        154320
#        174506
#        211402
#        221498
#        242300
#        265332
#        302518
#
# Disc length: 4491 seconds
#
# Revision: 0
# Processed by: cddbd v1.5.2PL0 Copyright (c) Steve Scherf et al.
# Submitted via: ExactAudioCopy v0.99pb5
#
DISCID=c811890f
DTITLE=Krzak - Live 1980 - 2007 [CD 1]
DYEAR=2007
DGENRE=R&B
TTITLE0=Down The Road [Rockin' Jamboree 1980]
TTITLE1=Bluse E-dur [Rockin' Jamboree 1980]
TTITLE2=Acik [Rockin' Jamboree 1980]
TTITLE3=Ptak moich marzen [Rockin' Jamboree 1980]
TTITLE4=Sciepka [Rockin' Jamboree 1980]
TTITLE5=Przewrotna samba [Rockin' Jamboree 1980]
TTITLE6=Dla Fredka [Rockin' Jamboree 1980]
TTITLE7=Dzemowa maszynka [Rockin' Jamboree 1980]
TTITLE8=Czakus [Rockin' Jamboree 1980]
TTITLE9=Blues dla Dzidka [Koncert w Swiatnikach 1982]
TTITLE10=Ontario [Koncert w Studio MTV 2003]
TTITLE11=Czakus [Koncert w Studio MTV 2003]
TTITLE12=Skoczus [Koncert w klubie Lizard King 2007]
TTITLE13=Jacky 2004 [Koncert w klubie Lizard King 2007]
TTITLE14=Lakis [Koncert w klubie Lizard King 2007]
EXTD=
EXTT0=
EXTT1=
EXTT2=
EXTT3=
EXTT4=
EXTT5=
EXTT6=
EXTT7=
EXTT8=
EXTT9=
EXTT10=
EXTT11=
EXTT12=
EXTT13=
EXTT14=
PLAYORDER=
